<svg xmlns="http://www.w3.org/2000/svg" width="520" height="520" viewBox="0 0 520 520" fill="none">
<rect width="520" height="520" fill="transparent"/>
<mask id="path-1-inside-1_5_73" fill="white">
<path fill-rule="evenodd" clip-rule="evenodd" d="M257.47 263.149C257.47 262.792 257.279 262.462 256.97 262.283L128.5 188.111C127.833 187.726 127 188.207 127 188.977L127 337.321C127 337.679 127.191 338.009 127.5 338.187L255.97 412.36C256.637 412.744 257.47 412.263 257.47 411.493V383.348C257.47 382.991 257.279 382.66 256.97 382.482L155.653 323.986C155.344 323.808 155.153 323.478 155.153 323.12L155.153 235.686C155.153 234.916 155.986 234.435 156.653 234.82L255.97 292.161C256.637 292.546 257.47 292.065 257.47 291.295V263.149Z"/>
</mask>
<path fill-rule="evenodd" clip-rule="evenodd" d="M257.47 263.149C257.47 262.792 257.279 262.462 256.97 262.283L128.5 188.111C127.833 187.726 127 188.207 127 188.977L127 337.321C127 337.679 127.191 338.009 127.5 338.187L255.97 412.36C256.637 412.744 257.47 412.263 257.47 411.493V383.348C257.47 382.991 257.279 382.66 256.97 382.482L155.653 323.986C155.344 323.808 155.153 323.478 155.153 323.12L155.153 235.686C155.153 234.916 155.986 234.435 156.653 234.82L255.97 292.161C256.637 292.546 257.47 292.065 257.47 291.295V263.149Z" fill="#7D7D7D"/>
<path d="M255.97 292.161L256.97 290.429L255.97 292.161ZM155.153 235.686L153.153 235.686L155.153 235.686ZM156.653 234.82L157.653 233.088L156.653 234.82ZM155.653 323.986L156.653 322.254L155.653 323.986ZM155.153 323.12L153.153 323.12L155.153 323.12ZM256.97 382.482L255.97 384.214L256.97 382.482ZM255.97 412.36L256.97 410.627L255.97 412.36ZM127.5 338.187L128.5 336.455L127.5 338.187ZM256.97 262.283L257.97 260.551L256.97 262.283ZM128.5 188.111L127.5 189.843L128.5 188.111ZM127.5 189.843L255.97 264.015L257.97 260.551L129.5 186.379L127.5 189.843ZM129 337.321L129 188.977L125 188.977L125 337.321L129 337.321ZM256.97 410.627L128.5 336.455L126.5 339.919L254.97 414.092L256.97 410.627ZM255.47 383.348V411.493H259.47V383.348H255.47ZM257.97 380.75L156.653 322.254L154.653 325.719L255.97 384.214L257.97 380.75ZM157.153 323.12L157.153 235.686L153.153 235.686L153.153 323.12L157.153 323.12ZM155.653 236.552L254.97 293.893L256.97 290.429L157.653 233.088L155.653 236.552ZM255.47 263.149V291.295H259.47V263.149H255.47ZM254.97 293.893C256.97 295.048 259.47 293.604 259.47 291.295H255.47C255.47 290.525 256.303 290.044 256.97 290.429L254.97 293.893ZM157.153 235.686C157.153 236.456 156.32 236.937 155.653 236.552L157.653 233.088C155.653 231.933 153.153 233.377 153.153 235.686L157.153 235.686ZM156.653 322.254C156.963 322.433 157.153 322.763 157.153 323.12L153.153 323.12C153.153 324.192 153.725 325.183 154.653 325.719L156.653 322.254ZM259.47 383.348C259.47 382.276 258.898 381.286 257.97 380.75L255.97 384.214C255.661 384.035 255.47 383.705 255.47 383.348H259.47ZM254.97 414.092C256.97 415.246 259.47 413.803 259.47 411.493H255.47C255.47 410.724 256.303 410.243 256.97 410.627L254.97 414.092ZM125 337.321C125 338.393 125.572 339.383 126.5 339.919L128.5 336.455C128.809 336.634 129 336.964 129 337.321L125 337.321ZM255.97 264.015C255.661 263.836 255.47 263.506 255.47 263.149H259.47C259.47 262.077 258.898 261.087 257.97 260.551L255.97 264.015ZM129.5 186.379C127.5 185.224 125 186.667 125 188.977L129 188.977C129 189.747 128.167 190.228 127.5 189.843L129.5 186.379Z" fill="white" mask="url(#path-1-inside-1_5_73)"/>
<mask id="path-3-inside-2_5_73" fill="white">
<path fill-rule="evenodd" clip-rule="evenodd" d="M394 188.977C394 188.207 393.167 187.726 392.5 188.111L264.03 262.283C263.721 262.462 263.53 262.792 263.53 263.149L263.53 411.493C263.53 412.263 264.363 412.744 265.03 412.36L393.5 338.187C393.809 338.009 394 337.679 394 337.321V309.09C394 308.32 393.167 307.839 392.5 308.224L294.011 365.086C293.345 365.471 292.511 364.99 292.511 364.22L292.511 276.957C292.511 276.6 292.702 276.27 293.011 276.091L393.5 218.074C393.809 217.896 394 217.565 394 217.208V188.977Z"/>
</mask>
<path fill-rule="evenodd" clip-rule="evenodd" d="M394 188.977C394 188.207 393.167 187.726 392.5 188.111L264.03 262.283C263.721 262.462 263.53 262.792 263.53 263.149L263.53 411.493C263.53 412.263 264.363 412.744 265.03 412.36L393.5 338.187C393.809 338.009 394 337.679 394 337.321V309.09C394 308.32 393.167 307.839 392.5 308.224L294.011 365.086C293.345 365.471 292.511 364.99 292.511 364.22L292.511 276.957C292.511 276.6 292.702 276.27 293.011 276.091L393.5 218.074C393.809 217.896 394 217.565 394 217.208V188.977Z" fill="#A2A2A2"/>
<path d="M393.5 218.074L392.5 216.342L393.5 218.074ZM292.511 276.957L290.511 276.957L292.511 276.957ZM293.011 276.091L292.011 274.359L293.011 276.091ZM294.011 365.086L293.011 363.354L294.011 365.086ZM292.511 364.22L294.511 364.22L292.511 364.22ZM392.5 308.224L391.5 306.492L392.5 308.224ZM393.5 338.187L392.5 336.455L393.5 338.187ZM265.03 412.36L264.03 410.627L265.03 412.36ZM392.5 188.111L391.5 186.379L392.5 188.111ZM264.03 262.283L263.03 260.551L264.03 262.283ZM265.03 264.015L393.5 189.843L391.5 186.379L263.03 260.551L265.03 264.015ZM265.53 411.493L265.53 263.149L261.53 263.149L261.53 411.493L265.53 411.493ZM392.5 336.455L264.03 410.627L266.03 414.092L394.5 339.919L392.5 336.455ZM392 309.09V337.321H396V309.09H392ZM391.5 306.492L293.011 363.354L295.011 366.818L393.5 309.956L391.5 306.492ZM294.511 364.22L294.511 276.957L290.511 276.957L290.511 364.22L294.511 364.22ZM294.011 277.823L394.5 219.806L392.5 216.342L292.011 274.359L294.011 277.823ZM392 188.977V217.208H396V188.977H392ZM394.5 219.806C395.428 219.27 396 218.28 396 217.208H392C392 216.851 392.191 216.521 392.5 216.342L394.5 219.806ZM294.511 276.957C294.511 277.315 294.321 277.645 294.011 277.823L292.011 274.359C291.083 274.895 290.511 275.886 290.511 276.957L294.511 276.957ZM293.011 363.354C293.678 362.969 294.511 363.451 294.511 364.22L290.511 364.22C290.511 366.53 293.011 367.973 295.011 366.818L293.011 363.354ZM396 309.09C396 306.781 393.5 305.337 391.5 306.492L393.5 309.956C392.833 310.341 392 309.86 392 309.09H396ZM394.5 339.919C395.428 339.383 396 338.393 396 337.321H392C392 336.964 392.191 336.634 392.5 336.455L394.5 339.919ZM261.53 411.493C261.53 413.803 264.03 415.246 266.03 414.092L264.03 410.627C264.697 410.243 265.53 410.724 265.53 411.493L261.53 411.493ZM393.5 189.843C392.833 190.228 392 189.747 392 188.977H396C396 186.667 393.5 185.224 391.5 186.379L393.5 189.843ZM263.03 260.551C262.102 261.087 261.53 262.077 261.53 263.149L265.53 263.149C265.53 263.506 265.339 263.836 265.03 264.015L263.03 260.551Z" fill="white" mask="url(#path-3-inside-2_5_73)"/>
<rect width="45.8057" height="23.7585" transform="matrix(0.866025 -0.5 0.866025 0.5 129.047 182.006)" fill="white"/>
<rect width="32.1439" height="22.2609" transform="matrix(0.866025 -0.5 0.866025 0.5 214.206 133.018)" fill="white"/>
<rect width="29.4465" height="20.6825" transform="matrix(0.866025 -0.5 0.866025 0.5 331.066 195.579)" fill="white"/>
<rect width="32.7183" height="22.9028" transform="matrix(0.866025 -0.5 0.866025 0.5 195.667 207.382)" fill="white"/>
<rect width="45.8057" height="23.285" transform="matrix(0.866025 -0.5 0.866025 0.5 239.655 245.866)" fill="white"/>
<rect width="13.9053" height="14.7232" transform="matrix(-0.866025 -0.5 0.866025 -0.5 317.042 224.314)" fill="white"/>
<rect width="150.816" height="22.9028" transform="matrix(-0.866025 -0.5 0.866025 -0.5 293.812 237.871)" fill="white"/>
<rect width="150.815" height="22.9028" transform="matrix(-0.866025 -0.5 0.866025 -0.5 334.895 214.149)" fill="white"/>
<rect width="151.053" height="22.2885" transform="matrix(-0.866025 -0.5 0.866025 -0.5 371.726 193.117)" fill="white"/>
</svg>